<svg width="40" height="40" viewBox="0 0 40 40" fill="none" xmlns="http://www.w3.org/2000/svg">
<circle cx="20" cy="20" r="20" fill="#26b999"/>
<path d="M26.6667 22.5L25 18.3333H15L13.3333 22.5" stroke="white" stroke-width="2" stroke-linecap="round" stroke-linejoin="round"/>
<path d="M20 22.5C22.0711 22.5 23.75 20.8211 23.75 18.75C23.75 16.6789 22.0711 15 20 15C17.9289 15 16.25 16.6789 16.25 18.75C16.25 20.8211 17.9289 22.5 20 22.5Z" stroke="white" stroke-width="2" stroke-linecap="round" stroke-linejoin="round"/>
<path d="M13.3333 22.5C15.4044 22.5 17.0833 20.8211 17.0833 18.75C17.0833 16.6789 15.4044 15 13.3333 15C11.2622 15 9.58325 16.6789 9.58325 18.75C9.58325 20.8211 11.2622 22.5 13.3333 22.5Z" stroke="white" stroke-width="2" stroke-linecap="round" stroke-linejoin="round"/>
</svg>