<?xml version="1.0" standalone="no"?>
<!DOCTYPE svg PUBLIC "-//W3C//DTD SVG 20010904//EN"
 "http://www.w3.org/TR/2001/REC-SVG-20010904/DTD/svg10.dtd">
<svg version="1.0" xmlns="http://www.w3.org/2000/svg"
 width="512.000000pt" height="512.000000pt" viewBox="0 0 512.000000 512.000000"
 preserveAspectRatio="xMidYMid meet">
<metadata>
Created by potrace 1.16, written by Peter Selinger 2001-2019
</metadata>
<g transform="translate(0.000000,512.000000) scale(0.100000,-0.100000)"
fill="#000000" stroke="none">
<svg xmlns="http://www.w3.org/2000/svg" width="24" height="24" viewBox="0 0 512 512" fill="currentColor">
                                <g transform="translate(0, 512) scale(0.1, -0.1)">
                                 <path d="M2911 4108 c-6 -15 -5 -30 4 -43 11 -17 27 -21 116 -26 57 -4 128 -7 157 -8 50 -1 52 -2 46 -25 -7 -28 9 -41 47 -38 31 2 110 -31 130 -54 11 -13 10 -17 -2 -25 -19 -12 -29 -11 -29 1 0 6 -9 10 -21 10 -14 0 -19 -5 -16 -14 7 -17 -22 -31 -36 -17 -7 7 -5 17 6 29 16 18 14 19 -41 36 -31 10 -66 28 -77 41 -29 34 -58 39 -80 15 -16 -18 -31 -20 -121 -20 -89 0 -105 -2 -113 -18 -21 -39 -2 -44 192 -51 102 -3 188 -9 192 -13 4 -4 -11 -16 -32 -27 -76 -38 -76 -42 -17 -194 36 -92 37 -98 19 -110 -15 -12 -16 -18 -6 -50 14 -41 14 -41 44 -26 11 7 52 15 90 19 56 6 79 15 123 45 29 20 67 57 83 81 31 47 57 134 47 159 -11 30 4 14 31 -32 23 -39 28 -60 28 -114 0 -56 -5 -75 -38 -137 -21 -40 -44 -99 -52 -130 -19 -73 -13 -107 59 -335 31 -95 73 -245 95 -333 40 -161 152 -555 190 -669 11 -32 17 -63 15 -67 -3 -4 0 -8 5 -8 6 0 11 -7 11 -15 0 -8 -6 -15 -12 -15 -16 0 -50 96 -209 573 -67 202 -123 366 -125 364 -2 -2 5 -32 16 -68 39 -128 22 -115 -36 27 -38 95 -54 128 -59 122 -2 -2 0 -35 5 -73 6 -48 45 -170 126 -390 116 -319 139 -375 176 -428 33 -47 14 -40 -35 12 -53 56 -75 97 -150 281 -30 74 -72 170 -92 212 l-38 78 -36 -29 c-64 -51 -181 -180 -225 -249 -59 -91 -85 -145 -112 -227 -27 -81 -31 -71 -8 19 20 78 69 185 129 278 l46 73 -66 -67 c-42 -43 -64 -59 -59 -45 17 57 86 151 180 244 110 111 103 122 -9 14 -155 -149 -246 -316 -292 -536 -16 -79 -37 -335 -28 -345 3 -3 13 6 24 19 13 16 20 19 22 10 19 -79 96 -279 129 -337 117 -204 323 -367 528 -418 36 -9 67 -18 69 -20 2 -2 -565 -4 -1260 -3 -1040 1 -1256 3 -1218 13 110 31 232 103 339 202 71 66 168 206 201 291 l23 60 110 -3 c60 -1 137 -6 170 -10 126 -15 186 5 265 92 27 30 53 50 56 44 3 -5 3 -14 0 -20 -3 -5 7 -15 22 -22 15 -7 31 -17 36 -23 5 -7 9 -6 15 1 5 8 23 9 57 4 90 -14 146 9 129 54 -4 9 -1 16 6 16 9 0 10 3 1 14 -15 18 -94 40 -126 34 -14 -3 -25 -2 -25 2 0 5 -22 14 -49 21 l-49 12 -4 61 c-6 64 -30 123 -72 173 l-25 30 172 179 c95 99 258 272 362 384 105 113 244 260 309 328 94 97 117 125 107 135 -10 9 -63 -40 -254 -235 -168 -171 -271 -268 -337 -316 -130 -94 -135 -95 -59 -16 84 88 303 353 297 360 -3 2 -177 -169 -386 -381 l-381 -385 -44 0 -43 0 -41 143 c-165 573 -193 676 -193 709 0 63 5 65 490 173 223 49 466 98 611 124 68 12 165 0 219 -27 27 -13 42 -16 50 -8 13 13 13 52 0 77 -15 27 -99 25 -242 -5 -202 -44 -778 -149 -784 -143 -2 1 58 18 132 36 74 18 133 35 131 37 -2 3 -72 -12 -156 -33 -95 -23 -147 -40 -139 -45 8 -5 3 -6 -12 -3 -28 7 -278 -49 -322 -71 -37 -19 -167 -162 -241 -266 -34 -48 -94 -144 -132 -213 -78 -140 -363 -579 -413 -636 -18 -20 -43 -40 -57 -43 -22 -6 -25 -12 -25 -49 0 -24 7 -52 15 -63 17 -22 20 -64 4 -64 -5 0 -7 -5 -3 -11 6 -10 -42 -69 -57 -69 -4 0 -21 12 -38 26 -32 26 -41 46 -19 42 6 -2 14 5 16 15 2 10 -2 17 -12 17 -9 0 -16 -6 -16 -12 -1 -15 -30 21 -30 36 0 5 7 1 15 -10 18 -24 19 -17 1 32 -7 22 -11 48 -9 59 2 11 5 31 7 45 2 14 4 28 5 33 2 12 30 8 61 -8 23 -12 34 -13 55 -3 14 6 25 15 25 20 0 5 5 6 12 2 7 -4 8 -3 4 4 -4 7 -3 12 1 12 16 0 74 120 70 143 -4 18 -5 17 -6 -5 -1 -26 -4 -28 -48 -28 l-48 0 -59 91 c-32 49 -63 92 -68 96 -6 3 20 -39 56 -93 l66 -99 -28 -13 c-15 -8 -41 -28 -59 -45 -27 -25 -35 -28 -48 -17 -9 8 -15 8 -15 2 0 -6 8 -16 17 -21 17 -10 16 -10 -2 -11 -11 -1 -15 -4 -9 -6 8 -4 8 -15 -2 -42 -7 -20 -13 -47 -14 -59 0 -20 -6 -22 -63 -26 l-62 -3 63 -2 c55 -2 62 -4 62 -22 0 -11 6 -36 14 -54 14 -34 14 -34 -22 -52 -21 -11 -38 -22 -40 -26 -2 -4 -11 -4 -20 -1 -14 4 -14 3 -3 -5 11 -8 21 -6 35 4 26 18 41 18 30 1 -5 -7 0 -3 11 9 l20 22 39 -34 c22 -19 46 -34 53 -34 9 0 3 -16 -18 -47 -18 -27 -26 -42 -17 -35 12 10 18 9 28 -3 7 -8 21 -15 31 -15 17 0 17 -2 -2 -35 -12 -19 -18 -35 -15 -35 3 0 13 14 21 30 9 17 28 36 43 42 15 7 36 20 47 29 12 10 39 18 65 19 65 3 68 2 73 -17 4 -17 5 -17 6 0 1 20 21 22 40 5 11 -10 13 -10 7 -1 -8 15 6 16 128 14 76 -1 80 -3 126 -41 26 -22 51 -40 56 -40 4 0 -14 17 -41 38 l-48 37 54 3 c30 2 73 1 96 -3 l43 -6 -24 -48 c-66 -129 -255 -256 -428 -287 -139 -26 -260 -8 -394 58 -208 100 -346 311 -364 558 l-8 105 3 -110 c2 -90 7 -124 30 -185 83 -230 267 -397 489 -446 91 -19 239 -15 317 10 62 19 159 69 196 100 43 36 52 32 18 -6 -17 -18 -4 -9 27 21 31 30 56 57 55 60 -1 3 11 20 27 36 16 17 42 54 58 83 27 47 33 52 64 52 32 0 33 -1 24 -25 -38 -100 -110 -203 -203 -291 -145 -138 -295 -204 -484 -212 -199 -8 -363 51 -500 181 -242 230 -320 532 -222 863 20 67 22 70 49 66 l28 -4 -25 -86 c-33 -118 -41 -282 -19 -376 45 -190 207 -391 390 -483 101 -51 149 -63 261 -68 l100 -4 -92 9 c-146 13 -246 52 -369 146 -109 83 -210 220 -254 347 -28 78 -38 238 -20 321 l12 58 22 -21 c26 -25 38 -27 30 -6 -11 27 17 119 67 221 54 111 130 204 222 271 28 21 69 55 89 75 40 40 125 71 226 83 71 8 200 -11 280 -41 66 -25 92 -21 92 12 0 30 -224 85 -339 83 l-56 -2 47 -6 c70 -10 70 -21 -1 -21 -77 0 -197 -24 -273 -55 -101 -41 -224 -137 -304 -236 -26 -32 -51 -57 -57 -56 -18 3 -115 -200 -138 -288 -28 -105 -31 -299 -6 -398 67 -271 287 -517 542 -608 l50 -18 -295 -2 c-185 -1 -275 -5 -240 -9 74 -11 4302 -10 4270 0 -14 4 -146 9 -295 9 -259 1 -344 10 -259 26 100 18 252 112 356 219 275 281 342 676 173 1023 -57 117 -145 227 -245 306 -119 94 -218 139 -410 184 l-34 9 39 24 40 25 -44 3 c-26 2 -64 -4 -90 -14 -24 -9 -58 -18 -75 -19 -17 -2 -51 -6 -75 -10 -35 -6 -43 -5 -39 5 5 17 35 26 163 50 87 17 92 19 35 14 -36 -3 -96 -12 -133 -21 -38 -8 -70 -13 -72 -11 -1 1 -31 93 -65 203 -82 262 -84 299 -18 435 25 52 49 110 53 127 10 47 -12 135 -43 180 -15 21 -40 58 -54 83 -14 25 -38 56 -52 69 -14 14 -26 28 -26 33 0 11 -29 39 -63 61 -17 11 -27 26 -27 42 0 32 -36 58 -62 44 -16 -9 -17 -13 -6 -27 7 -9 -8 -2 -34 16 -47 33 -74 40 -80 22 -2 -6 -48 -6 -133 0 -191 14 -194 14 -204 -12z m504 -39 c10 -15 -1 -23 -20 -15 -9 3 -13 10 -10 16 8 13 22 13 30 -1z m-127 -71 c-3 -7 -11 -13 -18 -13 -7 0 -15 6 -17 13 -3 7 4 12 17 12 13 0 20 -5 18 -12z m202 -58 c33 -17 90 -75 90 -93 0 -3 -18 2 -40 10 -39 16 -100 73 -100 93 0 14 5 13 50 -10z m-5 -122 c21 -9 31 -9 46 0 25 16 34 15 53 -4 34 -34 10 -132 -49 -202 -24 -29 -118 -92 -136 -92 -4 0 -10 11 -13 25 -5 18 -13 25 -30 25 -24 0 -45 36 -76 134 -11 36 -11 40 13 63 24 24 114 62 149 63 9 0 29 -5 43 -12z m-1601 -817 c-19 -33 -13 -61 16 -68 23 -6 30 -28 100 -315 58 -238 63 -279 14 -118 -49 160 -73 215 -139 325 -32 52 -59 95 -61 95 -2 0 7 -23 19 -52 18 -45 247 -771 243 -774 0 -1 -22 -4 -47 -7 l-46 -6 -16 75 c-20 92 -73 205 -122 259 l-36 40 34 -50 c47 -68 71 -118 96 -199 24 -78 27 -126 8 -126 -7 0 -24 37 -39 88 -15 48 -44 116 -65 151 -44 75 -153 195 -224 246 -54 40 -62 55 -25 48 20 -4 24 0 29 31 13 80 120 251 211 338 57 55 75 61 50 19z m2211 -301 c341 -87 595 -429 595 -801 0 -134 -22 -227 -85 -354 -137 -276 -359 -438 -621 -452 -222 -12 -431 77 -595 255 -145 157 -208 323 -209 545 0 147 21 240 82 366 45 94 61 116 155 210 99 100 105 105 119 87 13 -18 9 -25 -49 -85 -157 -164 -218 -357 -188 -598 14 -118 52 -223 103 -290 45 -59 62 -71 28 -20 -78 116 -110 230 -111 392 -1 73 -4 112 -9 100 -6 -15 -9 -16 -9 -4 -2 33 73 216 114 279 50 77 122 160 139 160 7 0 34 -53 61 -117 60 -146 115 -257 149 -302 30 -41 33 -56 9 -46 -13 4 -12 0 5 -15 36 -34 14 -49 -76 -53 l-77 -3 81 -2 c64 -2 83 -5 88 -18 11 -28 6 -34 -21 -29 l-28 5 28 -11 c15 -6 24 -15 21 -21 -5 -7 -2 -8 6 -3 13 8 59 -40 60 -63 0 -6 -27 -33 -60 -59 -33 -25 -60 -48 -60 -49 0 -8 69 39 90 61 12 13 27 22 32 19 5 -3 8 -2 7 3 -3 20 2 27 11 13 6 -10 10 -11 10 -2 0 6 9 12 21 12 11 0 18 -4 15 -8 -3 -5 11 -7 29 -6 22 2 34 -1 32 -8 -1 -7 4 -12 12 -13 8 0 16 -6 19 -14 3 -9 0 -11 -8 -6 -9 5 -11 4 -6 -4 4 -6 11 -9 16 -6 4 2 13 -9 20 -25 7 -17 17 -30 22 -30 5 0 6 -5 2 -12 -5 -7 -3 -8 5 -4 9 6 8 13 -5 27 -10 11 -18 28 -19 39 -1 11 -12 31 -25 45 -13 14 -22 26 -19 28 88 61 87 61 116 42 16 -10 41 -29 58 -44 23 -20 26 -21 11 -3 -11 12 -15 22 -10 22 5 0 -10 9 -33 21 -24 12 -40 25 -37 30 3 5 0 9 -6 9 -7 0 -10 17 -8 48 3 46 3 47 46 57 24 6 40 13 37 17 -3 3 20 21 52 39 32 18 59 36 61 40 2 4 11 5 20 2 9 -3 14 -3 10 2 -4 4 -2 15 4 23 7 8 -26 -10 -72 -39 -105 -67 -157 -92 -165 -78 -4 5 -10 7 -15 4 -5 -3 -12 0 -16 6 -5 8 -3 9 6 4 8 -5 11 -3 8 6 -3 8 -10 13 -16 12 -21 -5 -5 28 34 70 l39 42 -40 -35 c-22 -19 -41 -38 -43 -42 -5 -11 -32 -10 -32 0 0 4 -15 13 -33 20 -27 10 -36 21 -46 52 -7 22 -16 38 -22 34 -6 -3 -7 5 -3 22 5 18 3 25 -4 20 -6 -4 -8 2 -4 16 3 14 2 19 -6 14 -8 -5 -11 0 -10 11 3 36 -2 64 -11 59 -5 -4 -7 4 -3 16 3 13 1 19 -5 15 -7 -5 -9 1 -5 15 4 15 2 19 -7 14 -8 -5 -11 -3 -10 5 1 8 -1 21 -4 29 -16 40 -46 164 -41 169 3 3 54 5 112 5 86 -1 123 -6 187 -27 337 -110 530 -442 460 -795 -20 -99 -88 -238 -158 -323 -123 -149 -325 -228 -509 -199 -153 23 -261 82 -385 209 -46 46 -83 81 -83 76 0 -19 88 -120 144 -164 127 -101 249 -145 401 -144 250 0 434 120 555 363 101 204 99 461 -6 661 -72 136 -229 274 -371 326 -100 36 -150 45 -260 44 -73 0 -103 4 -104 12 0 7 -2 19 -4 27 -13 46 -10 54 20 61 67 15 221 9 300 -11z m-2520 -180 c3 -5 1 -10 -4 -10 -6 0 -11 5 -11 10 0 6 2 10 4 10 3 0 8 -4 11 -10z m86 -129 c71 -70 94 -102 128 -171 22 -47 43 -100 47 -117 6 -31 6 -31 -40 -34 -30 -3 -46 0 -46 7 0 7 -21 53 -46 103 -33 66 -65 112 -115 164 -38 40 -69 75 -69 79 0 20 24 55 38 55 9 0 55 -39 103 -86z m-105 -48 c22 -21 59 -63 82 -94 50 -67 99 -179 82 -189 -6 -4 -54 -12 -108 -19 -53 -7 -108 -15 -122 -18 -21 -4 -19 -1 13 21 20 15 37 29 37 32 0 3 -21 -9 -46 -27 -25 -17 -71 -37 -102 -44 -49 -12 -59 -12 -74 1 -15 14 -13 21 29 92 25 42 75 108 111 147 65 68 66 69 8 15 l-58 -55 32 65 c38 75 60 110 69 110 3 0 24 -17 47 -37z m-1056 -43 c-6 -11 -13 -20 -16 -20 -2 0 0 9 6 20 6 11 13 20 16 20 2 0 0 -9 -6 -20z m-30 -50 c-6 -11 -13 -20 -16 -20 -2 0 0 9 6 20 6 11 13 20 16 20 2 0 0 -9 -6 -20z m909 -42 c-31 -61 -101 -170 -105 -165 -9 8 17 59 66 132 28 41 53 75 56 75 2 0 -5 -19 -17 -42z m-274 -138 c-27 -12 -35 -12 -35 0 0 6 12 10 28 9 24 0 25 -1 7 -9z m-40 -10 c4 -6 16 -8 26 -5 20 7 20 7 1 -32 -11 -21 -29 -46 -40 -56 -18 -16 -20 -17 -26 -1 -8 22 11 44 31 37 12 -5 14 -3 8 7 -5 9 -4 11 3 6 7 -4 12 -3 12 3 0 22 -18 19 -45 -9 -15 -15 -24 -33 -21 -39 10 -15 -33 -13 -62 3 -21 11 -22 14 -8 25 9 8 16 10 16 7 0 -4 6 -1 14 6 8 7 12 16 9 21 -2 4 11 14 29 22 40 17 45 18 53 5z m969 -57 c-18 -31 -36 -71 -40 -88 l-6 -32 -222 -6 c-251 -7 -409 0 -403 17 2 7 62 13 168 16 l164 6 -162 2 -162 2 -14 29 -15 30 47 10 c101 22 201 35 341 46 41 4 113 10 160 14 47 5 106 9 132 10 l47 1 -35 -57z m283 46 c31 -12 79 -54 96 -84 6 -11 -6 -3 -25 17 -88 93 -226 89 -292 -9 l-25 -37 29 -18 c33 -20 41 -35 11 -18 -45 24 -54 15 -49 -52 3 -35 8 -72 12 -83 5 -13 2 -11 -8 5 -22 36 -20 132 3 178 20 38 61 81 96 100 26 15 115 15 152 1z m810 -31 c-3 -7 -5 -2 -5 12 0 14 2 19 5 13 2 -7 2 -19 0 -25z m-867 -46 c0 -29 3 -32 20 -27 22 7 70 -33 70 -58 0 -18 21 -27 67 -27 23 0 33 -4 30 -12 -3 -9 -26 -12 -78 -10 -62 3 -77 6 -91 25 -10 12 -18 25 -18 28 0 14 40 16 59 2 18 -12 20 -12 15 2 -7 17 -11 18 -84 16 -85 -3 -115 -51 -67 -107 l23 -26 28 24 c25 21 34 23 75 16 25 -4 96 -15 156 -24 61 -8 112 -18 114 -20 13 -13 -17 -15 -80 -6 -85 13 -116 3 -44 -14 28 -7 40 -13 27 -13 -13 -1 -44 4 -69 10 -37 10 -50 9 -72 -3 -14 -9 -53 -18 -86 -21 -36 -3 -52 -2 -40 3 11 5 31 9 45 10 17 1 11 5 -23 14 -26 7 -49 15 -50 17 -56 71 -48 137 19 165 31 13 34 18 34 57 0 31 3 38 10 27 5 -8 10 -30 10 -48z m1746 -17 c-1 -19 -6 -38 -10 -42 -5 -5 -5 2 -2 14 4 12 3 31 -3 41 -11 20 -5 35 10 26 4 -2 7 -20 5 -39z m-2706 26 c2 -1 -1 -6 -7 -12 -13 -13 -47 -4 -39 10 4 5 14 8 24 6 9 -2 19 -4 22 -4z m2574 -27 c11 -30 6 -37 -14 -19 -11 10 -20 22 -20 27 0 15 28 9 34 -8z m-2544 -20 c0 -8 -9 -14 -20 -14 -22 0 -26 10 -8 28 13 13 28 7 28 -14z m2747 -6 c-3 -8 -6 -5 -6 6 -1 11 2 17 5 13 3 -3 4 -12 1 -19z m-1640 -30 c-3 -8 -6 -5 -6 6 -1 11 2 17 5 13 3 -3 4 -12 1 -19z m-1097 -3 c0 -9 -9 -15 -25 -15 -24 0 -32 10 -18 23 12 13 43 7 43 -8z m2600 5 l25 -8 -25 0 c-14 0 -34 3 -45 8 l-20 9 20 -1 c11 0 31 -4 45 -8z m-2109 -67 l157 -6 5 -31 c3 -17 8 -39 12 -48 7 -17 -5 -18 -171 -17 -236 1 -269 6 -341 55 l-58 39 40 6 c58 9 179 10 356 2z m-400 -28 c16 -9 51 -30 77 -46 l47 -31 -105 8 c-58 4 -110 7 -117 7 -8 0 -5 13 9 39 24 42 42 47 89 23z m-200 -38 c-16 -16 -26 0 -10 19 9 11 15 12 17 4 2 -6 -1 -17 -7 -23z m99 25 c0 -23 -34 -52 -60 -52 -27 0 -28 1 -17 30 9 25 17 30 44 30 18 0 33 -3 33 -8z m-205 -14 c14 -6 25 -14 25 -18 0 -10 -50 -31 -51 -22 -4 22 -6 52 -3 52 2 0 15 -5 29 -12z m1012 -78 c74 -65 160 -64 241 2 27 22 25 19 -6 -10 -76 -72 -169 -70 -249 3 -60 55 -48 60 14 5z m-753 -27 c37 -24 70 -42 73 -40 2 3 -26 24 -64 46 l-68 42 85 -5 c47 -3 141 -8 209 -12 l123 -6 -6 -31 c-4 -17 -12 -35 -19 -39 -11 -7 -52 -12 -71 -9 -5 1 -91 2 -192 2 l-183 0 -19 33 c-11 19 -23 43 -26 54 -6 18 -3 19 41 14 34 -3 68 -18 117 -49z m1354 29 c2 -7 -3 -12 -12 -12 -9 0 -16 7 -16 16 0 17 22 14 28 -4z m-1517 -33 c4 -19 7 -25 8 -14 1 17 3 18 11 5 15 -23 13 -26 -29 -28 l-39 -3 10 41 c12 48 30 48 39 -1z m-181 6 c-7 -8 -17 -15 -23 -15 -5 0 -2 9 8 20 21 23 35 19 15 -5z m40 2 c0 -14 -20 -37 -32 -37 -12 0 -10 24 4 38 16 16 28 15 28 -1z m756 1 c-3 -7 -7 -25 -10 -40 -6 -27 -29 -38 -40 -19 -11 17 15 71 35 71 10 0 17 -6 15 -12z m234 -28 c22 -22 37 -40 33 -41 -19 -1 -188 3 -190 5 -1 1 0 19 4 39 l6 37 53 0 c50 0 57 -3 94 -40z m-930 26 c0 -3 -4 -8 -10 -11 -5 -3 -10 -1 -10 4 0 6 5 11 10 11 6 0 10 -2 10 -4z m-65 -89 c-8 -4 -29 -4 -47 1 -32 9 -31 9 14 8 28 0 41 -4 33 -9z m555 -170 c0 -2 -12 -14 -27 -28 l-28 -24 24 28 c23 25 31 32 31 24z"/>
                                 <path d="M3833 2663 c9 -2 23 -2 30 0 6 3 -1 5 -18 5 -16 0 -22 -2 -12 -5z"/>
                                 <path d="M3963 2663 c9 -2 23 -2 30 0 6 3 -1 5 -18 5 -16 0 -22 -2 -12 -5z"/>
                                 <path d="M4038 2653 c7 -3 16 -2 19 1 4 3 -2 6 -13 5 -11 0 -14 -3 -6 -6z"/>
                                 <path d="M4180 2645 c14 -8 30 -14 35 -14 6 0 -1 6 -15 14 -14 8 -29 14 -35 14 -5 0 1 -6 15 -14z"/>
                                 <path d="M4150 2620 c8 -5 20 -10 25 -10 6 0 3 5 -5 10 -8 5 -19 10 -25 10 -5 0 -3 -5 5 -10z"/>
                                 <path d="M4004 2440 c0 -63 1 -89 3 -57 2 31 2 83 0 115 -2 31 -3 5 -3 -58z"/>
                                 <path d="M4334 2536 c3 -22 22 -40 30 -28 3 5 -3 17 -13 27 -17 15 -19 15 -17 1z"/>
                                 <path d="M4370 2496 c0 -2 8 -10 18 -17 15 -13 16 -12 3 4 -13 16 -21 21 -21 13z"/>
                                 <path d="M4450 2416 c0 -2 8 -10 18 -17 15 -13 16 -12 3 4 -13 16 -21 21 -21 13z"/>
                                 <path d="M3474 2358 l-19 -23 23 19 c21 18 27 26 19 26 -2 0 -12 -10 -23 -22z"/>
                                 <path d="M4242 2333 c-26 -38 -34 -53 -29 -53 2 0 16 18 31 40 29 45 28 56 -2 13z"/>
                                 <path d="M3439 2313 c-13 -16 -12 -17 4 -4 16 13 21 21 13 21 -2 0 -10 -8 -17 -17z"/>
                                 <path d="M3994 2215 c0 -49 1 -71 3 -48 2 23 2 64 0 90 -2 26 -3 8 -3 -42z"/>
                                 <path d="M4546 2277 c3 -10 9 -15 12 -12 3 3 0 11 -7 18 -10 9 -11 8 -5 -6z"/>
                                 <path d="M4159 2208 l-41 -63 56 55 c53 52 78 83 36 45 -21 -19 -28 -7 -8 13 7 7 9 12 5 12 -3 0 -25 -28 -48 -62z"/>
                                 <path d="M3420 2216 c0 -3 9 -10 20 -16 11 -6 20 -8 20 -6 0 3 -9 10 -20 16 -11 6 -20 8 -20 6z"/>
                                 <path d="M4036 2185 c-9 -26 -7 -32 5 -12 6 10 9 21 6 23 -2 3 -7 -2 -11 -11z"/>
                                 <path d="M3490 2176 c0 -3 9 -10 20 -16 11 -6 20 -8 20 -6 0 3 -9 10 -20 16 -11 6 -20 8 -20 6z"/>
                                 <path d="M4379 2163 c-13 -16 -12 -17 4 -4 16 13 21 21 13 21 -2 0 -10 -8 -17 -17z"/>
                                 <path d="M4400 2140 c-19 -11 -31 -19 -27 -20 11 0 67 29 67 35 0 7 -1 7 -40 -15z"/>
                                 <path d="M3600 2115 c0 -2 18 -14 40 -25 22 -11 40 -18 40 -15 0 2 -18 14 -40 25 -22 11 -40 18 -40 15z"/>
                                 <path d="M4011 2104 c0 -11 3 -14 6 -6 3 7 2 16 -1 19 -3 4 -6 -2 -5 -13z"/>
                                 <path d="M4621 2084 c0 -11 3 -14 6 -6 3 7 2 16 -1 19 -3 4 -6 -2 -5 -13z"/>
                                 <path d="M3241 2044 c0 -11 3 -14 6 -6 3 7 2 16 -1 19 -3 4 -6 -2 -5 -13z"/>
                                 <path d="M3710 2056 c0 -3 9 -10 20 -16 11 -6 20 -8 20 -6 0 3 -9 10 -20 16 -11 6 -20 8 -20 6z"/>
                                 <path d="M4631 2034 c0 -11 3 -14 6 -6 3 7 2 16 -1 19 -3 4 -6 -2 -5 -13z"/>
                                 <path d="M4393 2033 c9 -2 25 -2 35 0 9 3 1 5 -18 5 -19 0 -27 -2 -17 -5z"/>
                                 <path d="M4318 2023 c12 -2 30 -2 40 0 9 3 -1 5 -23 4 -22 0 -30 -2 -17 -4z"/>
                                 <path d="M4218 2013 c12 -2 32 -2 45 0 12 2 2 4 -23 4 -25 0 -35 -2 -22 -4z"/>
                                 <path d="M4643 1915 c0 -33 2 -45 4 -27 2 18 2 45 0 60 -2 15 -4 0 -4 -33z"/>
                                 <path d="M3421 1946 c2 -2 45 -6 94 -9 63 -4 77 -3 45 3 -45 9 -147 13 -139 6z"/>
                                 <path d="M3638 1923 c12 -2 30 -2 40 0 9 3 -1 5 -23 4 -22 0 -30 -2 -17 -4z"/>
                                 <path d="M3718 1913 c7 -3 16 -2 19 1 4 3 -2 6 -13 5 -11 0 -14 -3 -6 -6z"/>
                                 <path d="M4213 1873 c32 -2 81 -2 110 0 29 2 3 3 -58 3 -60 0 -84 -1 -52 -3z"/>
                                 <path d="M3241 1854 c0 -11 3 -14 6 -6 3 7 2 16 -1 19 -3 4 -6 -2 -5 -13z"/>
                                 <path d="M3754 1854 c-18 -14 -18 -15 4 -4 12 6 22 13 22 15 0 8 -5 6 -26 -11z"/>
                                 <path d="M3658 1804 c-27 -13 -48 -27 -48 -29 0 -3 23 6 50 20 28 14 50 28 50 30 0 7 1 7 -52 -21z"/>
                                 <path d="M4200 1820 c8 -5 20 -10 25 -10 6 0 3 5 -5 10 -8 5 -19 10 -25 10 -5 0 -3 -5 5 -10z"/>
                                 <path d="M4492 1810 c0 -14 2 -19 5 -12 2 6 2 18 0 25 -3 6 -5 1 -5 -13z"/>
                                 <path d="M4250 1800 c8 -5 20 -10 25 -10 6 0 3 5 -5 10 -8 5 -19 10 -25 10 -5 0 -3 -5 5 -10z"/>
                                 <path d="M4631 1794 c0 -11 3 -14 6 -6 3 7 2 16 -1 19 -3 4 -6 -2 -5 -13z"/>
                                 <path d="M4350 1755 c25 -13 50 -24 55 -24 6 0 -10 11 -35 24 -25 13 -49 24 -55 24 -5 0 10 -11 35 -24z"/>
                                 <path d="M3971 1754 c0 -11 3 -14 6 -6 3 7 2 16 -1 19 -3 4 -6 -2 -5 -13z"/>
                                 <path d="M4247 1759 c12 -15 73 -53 73 -46 0 2 -19 17 -42 32 -24 16 -38 22 -31 14z"/>
                                 <path d="M4481 1754 c0 -11 3 -14 6 -6 3 7 2 16 -1 19 -3 4 -6 -2 -5 -13z"/>
                                 <path d="M3872 1740 c0 -14 2 -19 5 -12 2 6 2 18 0 25 -3 6 -5 1 -5 -13z"/>
                                 <path d="M4621 1744 c0 -11 3 -14 6 -6 3 7 2 16 -1 19 -3 4 -6 -2 -5 -13z"/>
                                 <path d="M3528 1734 c-38 -20 -36 -28 2 -9 17 9 30 18 30 20 0 7 -1 6 -32 -11z"/>
                                 <path d="M3981 1704 c0 -11 3 -14 6 -6 3 7 2 16 -1 19 -3 4 -6 -2 -5 -13z"/>
                                 <path d="M3709 1683 c-13 -16 -12 -17 4 -4 16 13 21 21 13 21 -2 0 -10 -8 -17 -17z"/>
                                 <path d="M3749 1673 c-13 -16 -12 -17 4 -4 16 13 21 21 13 21 -2 0 -10 -8 -17 -17z"/>
                                 <path d="M3862 1665 c0 -16 2 -22 5 -12 2 9 2 23 0 30 -3 6 -5 -1 -5 -18z"/>
                                 <path d="M4150 1686 c0 -3 27 -24 60 -46 33 -22 60 -38 60 -36 0 3 -27 24 -60 46 -33 22 -60 38 -60 36z"/>
                                 <path d="M3645 1634 l-40 -36 43 32 c36 27 49 40 40 40 -2 0 -21 -16 -43 -36z"/>
                                 <path d="M3991 1654 c0 -11 3 -14 6 -6 3 7 2 16 -1 19 -3 4 -6 -2 -5 -13z"/>
                                 <path d="M4404 1656 c11 -9 16 -22 13 -31 -9 -21 0 -19 12 4 8 15 5 20 -17 30 -25 10 -25 10 -8 -3z"/>
                                 <path d="M4070 1655 c0 -5 5 -17 10 -25 5 -8 10 -10 10 -5 0 6 -5 17 -10 25 -5 8 -10 11 -10 5z"/>
                                 <path d="M3719 1633 c-13 -16 -12 -17 4 -4 16 13 21 21 13 21 -2 0 -10 -8 -17 -17z"/>
                                 <path d="M4198 1560 l92 -96 -44 -43 -44 -43 -16 28 c-8 16 -15 24 -16 18 0 -7 8 -21 18 -33 l17 -22 70 73 c39 40 59 63 45 50 l-25 -22 -95 92 -95 93 93 -95z"/>
                                 <path d="M4002 1610 c0 -14 2 -19 5 -12 2 6 2 18 0 25 -3 6 -5 1 -5 -13z"/>
                                 <path d="M3852 1590 c0 -19 2 -27 5 -17 2 9 2 25 0 35 -3 9 -5 1 -5 -18z"/>
                                 <path d="M3634 1528 c-37 -44 -62 -78 -56 -74 14 8 135 156 129 156 -3 0 -36 -37 -73 -82z"/>
                                 <path d="M4091 1605 c0 -5 6 -21 14 -35 8 -14 14 -20 14 -15 0 6 -6 21 -14 35 -8 14 -14 21 -14 15z"/>
                                 <path d="M3550 1559 l-45 -41 48 37 c41 33 53 45 45 45 -2 0 -23 -18 -48 -41z"/>
                                 <path d="M4312 1570 c21 -18 36 -35 33 -39 -2 -4 2 -8 10 -8 27 0 17 12 -50 58 -19 13 -16 9 7 -11z"/>
                                 <path d="M4385 1574 c-9 -15 -12 -23 -6 -20 11 7 35 46 28 46 -3 0 -12 -12 -22 -26z"/>
                                 <path d="M4011 1564 c0 -11 3 -14 6 -6 3 7 2 16 -1 19 -3 4 -6 -2 -5 -13z"/>
                                 <path d="M3776 1555 c-9 -26 -7 -32 5 -12 6 10 9 21 6 23 -2 3 -7 -2 -11 -11z"/>
                                 <path d="M3842 1510 c0 -19 2 -27 5 -17 2 9 2 25 0 35 -3 9 -5 1 -5 -18z"/>
                                 <path d="M4022 1520 c0 -14 2 -19 5 -12 2 6 2 18 0 25 -3 6 -5 1 -5 -13z"/>
                                 <path d="M3756 1505 c-9 -26 -7 -32 5 -12 6 10 9 21 6 23 -2 3 -7 -2 -11 -11z"/>
                                 <path d="M4131 1515 c0 -5 6 -21 14 -35 8 -14 14 -20 14 -15 0 6 -6 21 -14 35 -8 14 -14 21 -14 15z"/>
                                 <path d="M4031 1464 c0 -11 3 -14 6 -6 3 7 2 16 -1 19 -3 4 -6 -2 -5 -13z"/>
                                 <path d="M3832 1435 c0 -16 2 -22 5 -12 2 9 2 23 0 30 -3 6 -5 -1 -5 -18z"/>
                                 <path d="M3726 1425 c-9 -26 -7 -32 5 -12 6 10 9 21 6 23 -2 3 -7 -2 -11 -11z"/>
                                 <path d="M4042 1420 c0 -14 2 -19 5 -12 2 6 2 18 0 25 -3 6 -5 1 -5 -13z"/>
                                 <path d="M4464 1408 l-19 -23 23 19 c21 18 27 26 19 26 -2 0 -12 -10 -23 -22z"/>
                                 <path d="M3822 1375 c0 -16 2 -22 5 -12 2 9 2 23 0 30 -3 6 -5 -1 -5 -18z"/>
                                 <path d="M3696 1373 c10 -7 21 -13 26 -13 4 0 5 6 2 13 -2 7 -14 13 -25 13 -19 0 -19 -1 -3 -13z"/>
                                 <path d="M4052 1375 c0 -11 3 -29 8 -40 11 -25 11 1 0 35 -6 20 -8 21 -8 5z"/>
                                 <path d="M4190 1350 c-30 -16 -50 -29 -45 -29 6 0 35 13 65 29 30 16 51 29 45 29 -5 0 -35 -13 -65 -29z"/>
                                 <path d="M4414 1348 l-29 -33 33 29 c30 28 37 36 29 36 -2 0 -16 -15 -33 -32z"/>
                                 <path d="M3828 1323 c7 -3 16 -2 19 1 4 3 -2 6 -13 5 -11 0 -14 -3 -6 -6z"/>
                                 <path d="M3873 1313 c9 -2 23 -2 30 0 6 3 -1 5 -18 5 -16 0 -22 -2 -12 -5z"/>
                                 <path d="M4048 1293 c7 -3 16 -2 19 1 4 3 -2 6 -13 5 -11 0 -14 -3 -6 -6z"/>
                                 <path d="M3993 1283 c9 -2 23 -2 30 0 6 3 -1 5 -18 5 -16 0 -22 -2 -12 -5z"/>
                                 <path d="M4068 1173 c6 -2 18 -2 25 0 6 3 1 5 -13 5 -14 0 -19 -2 -12 -5z"/>
                                 <path d="M3938 1163 c17 -2 47 -2 65 0 17 2 3 4 -33 4 -36 0 -50 -2 -32 -4z"/>
                                 <path d="M1589 2113 c-13 -16 -12 -17 4 -4 16 13 21 21 13 21 -2 0 -10 -8 -17 -17z"/>
                                 <path d="M1700 1906 c0 -2 13 -6 29 -8 17 -2 28 -1 25 4 -5 8 -54 12 -54 4z"/>
                                 <path d="M2318 1753 c7 -3 16 -2 19 1 4 3 -2 6 -13 5 -11 0 -14 -3 -6 -6z"/>
                                 <path d="M1388 3613 c-50 -56 12 -129 133 -157 107 -25 106 -25 89 -37 -13 -8 -13 -10 0 -19 8 -5 29 -10 45 -10 30 0 30 -1 62 -112 23 -83 29 -116 21 -126 -8 -10 -8 -17 3 -27 11 -11 22 -12 57 -2 43 11 54 30 28 51 -14 11 -70 198 -68 228 0 9 -9 20 -20 24 -18 5 -17 9 18 30 71 43 100 53 190 64 49 6 93 15 98 20 20 20 -49 88 -77 76 -7 -2 -6 -5 4 -5 20 -1 63 -47 55 -59 -3 -5 -47 -12 -98 -15 -51 -4 -136 -18 -188 -32 -52 -13 -109 -25 -127 -25 -18 0 -65 17 -108 40 -42 22 -87 40 -100 40 -18 0 -25 6 -25 19 0 31 25 44 72 37 108 -15 215 -16 353 -2 l150 15 -135 -7 c-171 -9 -257 -8 -345 2 -63 7 -72 6 -87 -11z m369 -139 c-16 -9 -31 -13 -34 -10 -3 3 5 10 18 15 37 15 47 12 16 -5z m-47 -14 c0 -5 -12 -10 -27 -9 l-28 1 25 8 c14 4 26 8 28 9 1 1 2 -3 2 -9z m54 -164 c27 -87 31 -116 19 -116 -8 0 -63 174 -63 198 0 33 21 -6 44 -82z"/>
                                 <path d="M2718 3283 c7 -3 16 -2 19 1 4 3 -2 6 -13 5 -11 0 -14 -3 -6 -6z"/>
                                 <path d="M2678 3273 c7 -3 16 -2 19 1 4 3 -2 6 -13 5 -11 0 -14 -3 -6 -6z"/>
                                 <path d="M2638 3263 c7 -3 16 -2 19 1 4 3 -2 6 -13 5 -11 0 -14 -3 -6 -6z"/>
                                 <path d="M2598 3253 c7 -3 16 -2 19 1 4 3 -2 6 -13 5 -11 0 -14 -3 -6 -6z"/>
                                 <path d="M2558 3243 c7 -3 16 -2 19 1 4 3 -2 6 -13 5 -11 0 -14 -3 -6 -6z"/>
                                 <path d="M3465 3070 c-49 -19 -51 -21 -50 -59 0 -29 8 -48 27 -68 15 -15 31 -39 37 -53 8 -22 10 -18 10 26 1 55 13 74 48 74 31 0 31 40 1 74 l-23 25 -50 -19z"/>
                                 <path d="M1033 2693 c9 -2 25 -2 35 0 9 3 1 5 -18 5 -19 0 -27 -2 -17 -5z"/>
                                 <path d="M955 2680 c-25 -11 1 -11 35 0 20 6 21 8 5 8 -11 0 -29 -3 -40 -8z"/>
                                 <path d="M890 2660 c-18 -12 -2 -12 25 0 13 6 15 9 5 9 -8 0 -22 -4 -30 -9z"/>
                                 <path d="M800 2619 c-30 -18 -84 -56 -120 -87 -67 -56 -170 -169 -170 -187 0 -5 12 6 27 25 81 104 184 195 284 250 30 16 50 30 44 30 -5 0 -35 -14 -65 -31z"/>
                                 <path d="M1138 2603 c17 -2 47 -2 65 0 17 2 3 4 -33 4 -36 0 -50 -2 -32 -4z"/>
                                 <path d="M1038 2593 c7 -3 16 -2 19 1 4 3 -2 6 -13 5 -11 0 -14 -3 -6 -6z"/>
                                 <path d="M1278 2593 c7 -3 16 -2 19 1 4 3 -2 6 -13 5 -11 0 -14 -3 -6 -6z"/>
                                 <path d="M1021 2524 c-71 -19 -114 -40 -142 -70 l-23 -25 56 25 c128 57 295 73 419 41 57 -15 79 -14 79 5 0 5 -31 16 -69 24 -86 20 -247 20 -320 0z"/>
                                 <path d="M1143 2355 c0 -44 2 -61 4 -37 2 23 2 59 0 80 -2 20 -4 1 -4 -43z"/>
                                 <path d="M1251 2384 c0 -11 3 -14 6 -6 3 7 2 16 -1 19 -3 4 -6 -2 -5 -13z"/>
                                 <path d="M880 2320 c12 -16 24 -30 26 -30 3 0 -4 14 -16 30 -12 17 -24 30 -26 30 -3 0 4 -13 16 -30z"/>
                                 <path d="M1241 2334 c0 -11 3 -14 6 -6 3 7 2 16 -1 19 -3 4 -6 -2 -5 -13z"/>
                                 <path d="M749 2293 l-24 -28 28 24 c25 23 32 31 24 31 -2 0 -14 -12 -28 -27z"/>
                                 <path d="M1231 2294 c0 -11 3 -14 6 -6 3 7 2 16 -1 19 -3 4 -6 -2 -5 -13z"/>
                                 <path d="M708 2243 c-18 -21 -31 -43 -25 -43 2 0 13 14 25 30 25 33 24 41 0 13z"/>
                                 <path d="M685 2170 c10 -11 20 -20 23 -20 3 0 -3 9 -13 20 -10 11 -20 20 -23 20 -3 0 3 -9 13 -20z"/>
                                 <path d="M720 2146 c0 -3 28 -26 62 -53 35 -26 71 -56 80 -65 10 -10 18 -14 18 -9 0 5 -36 36 -80 70 -44 34 -80 60 -80 57z"/>
                                 <path d="M700 2070 c8 -5 20 -10 25 -10 6 0 3 5 -5 10 -8 5 -19 10 -25 10 -5 0 -3 -5 5 -10z"/>
                                 <path d="M708 2013 c7 -3 16 -2 19 1 4 3 -2 6 -13 5 -11 0 -14 -3 -6 -6z"/>
                                 <path d="M602 1990 c0 -14 2 -19 5 -12 2 6 2 18 0 25 -3 6 -5 1 -5 -13z"/>
                                 <path d="M758 2003 c7 -3 16 -2 19 1 4 3 -2 6 -13 5 -11 0 -14 -3 -6 -6z"/>
                                 <path d="M798 1993 c7 -3 16 -2 19 1 4 3 -2 6 -13 5 -11 0 -14 -3 -6 -6z"/>
                                 <path d="M848 1983 c7 -3 16 -2 19 1 4 3 -2 6 -13 5 -11 0 -14 -3 -6 -6z"/>
                                 <path d="M593 1915 c0 -22 2 -30 4 -17 2 12 2 30 0 40 -3 9 -5 -1 -4 -23z"/>
                                 <path d="M935 1928 c-13 -42 -12 -56 2 -51 8 3 21 -1 31 -10 9 -8 28 -18 42 -21 17 -5 13 0 -12 14 -21 11 -38 25 -38 31 0 6 -5 7 -11 3 -8 -4 -9 3 -4 25 8 36 1 42 -10 9z"/>
                                 <path d="M965 1930 c-3 -5 0 -19 8 -30 14 -21 14 -21 20 2 4 12 4 24 2 27 -3 2 -5 -1 -5 -7 0 -7 -4 -12 -10 -12 -5 0 -7 7 -4 15 7 17 -1 20 -11 5z"/>
                                 <path d="M936 1842 c-4 -7 -2 -12 4 -12 6 0 8 -5 5 -10 -4 -6 -3 -9 2 -8 4 1 18 -3 29 -10 12 -6 25 -8 29 -4 5 4 6 0 3 -9 -4 -9 -2 -22 3 -30 7 -11 9 -11 9 3 0 9 3 23 6 32 4 11 1 14 -14 11 -12 -2 -23 3 -26 12 -4 9 -9 13 -13 10 -3 -4 -11 1 -18 10 -8 11 -14 13 -19 5z"/>
                                 <path d="M653 1833 c15 -2 37 -2 50 0 12 2 0 4 -28 4 -27 0 -38 -2 -22 -4z"/>
                                 <path d="M659 1637 c4 -4 18 -3 32 2 23 9 22 9 -8 8 -18 -1 -28 -6 -24 -10z"/>
                                 <path d="M720 1620 c-9 -6 -10 -10 -3 -10 6 0 15 5 18 10 8 12 4 12 -15 0z"/>
                                 <path d="M824 1618 c-4 -7 -14 -24 -22 -38 -14 -24 -13 -24 3 -5 20 24 37 55 31 55 -3 0 -8 -6 -12 -12z"/>
                                 <path d="M1174 1455 c0 -77 2 -107 3 -67 2 40 2 103 0 140 -2 37 -3 4 -3 -73z"/>
                                 <path d="M896 1484 c-26 -36 -42 -63 -36 -59 12 7 93 125 86 125 -2 0 -25 -30 -50 -66z"/>
                                 <path d="M708 1525 c6 -11 34 -42 63 -70 l53 -50 -59 65 c-32 36 -61 67 -63 70 -3 3 0 -4 6 -15z"/>
                                 <path d="M1081 1524 c0 -11 3 -14 6 -6 3 7 2 16 -1 19 -3 4 -6 -2 -5 -13z"/>
                                 <path d="M1263 1505 c0 -22 2 -30 4 -17 2 12 2 30 0 40 -3 9 -5 -1 -4 -23z"/>
                                 <path d="M1350 1500 c6 -11 13 -20 16 -20 2 0 0 9 -6 20 -6 11 -13 20 -16 20 -2 0 0 -9 6 -20z"/>
                                 <path d="M980 1450 c-6 -11 -8 -20 -6 -20 3 0 10 9 16 20 6 11 8 20 6 20 -3 0 -10 -9 -16 -20z"/>
                                 <path d="M1519 1453 c-13 -16 -12 -17 4 -4 16 13 21 21 13 21 -2 0 -10 -8 -17 -17z"/>
                                 <path d="M1061 1434 c0 -11 3 -14 6 -6 3 7 2 16 -1 19 -3 4 -6 -2 -5 -13z"/>
                                 <path d="M1272 1430 c0 -14 2 -19 5 -12 2 6 2 18 0 25 -3 6 -5 1 -5 -13z"/>
                                 <path d="M1399 1411 c6 -10 7 -22 3 -26 -4 -5 -1 -5 6 -1 9 5 9 12 2 27 -6 10 -13 19 -16 19 -2 0 0 -8 5 -19z"/>
                                 <path d="M945 1394 c-9 -15 -12 -23 -6 -20 11 7 35 46 28 46 -3 0 -12 -12 -22 -26z"/>
                                 <path d="M1051 1394 c0 -11 3 -14 6 -6 3 7 2 16 -1 19 -3 4 -6 -2 -5 -13z"/>
                                 <path d="M1283 1366 c1 -17 9 -31 17 -33 10 -3 11 -2 4 4 -7 4 -14 19 -17 33 -4 22 -5 21 -4 -4z"/>
                                 <path d="M1073 1313 c9 -2 25 -2 35 0 9 3 1 5 -18 5 -19 0 -27 -2 -17 -5z"/>
                                 <path d="M1198 1313 c6 -2 18 -2 25 0 6 3 1 5 -13 5 -14 0 -19 -2 -12 -5z"/>
                                 <path d="M1489 1283 c-13 -16 -12 -17 4 -4 9 7 17 15 17 17 0 8 -8 3 -21 -13z"/>
                                 <path d="M1390 1225 c-14 -8 -20 -14 -14 -15 5 0 19 7 30 15 24 18 16 19 -16 0z"/>
                                 <path d="M1258 1173 c7 -3 16 -2 19 1 4 3 -2 6 -13 5 -11 0 -14 -3 -6 -6z"/>
                                 <path d="M1208 1163 c6 -2 18 -2 25 0 6 3 1 5 -13 5 -14 0 -19 -2 -12 -5z"/>
                                </g>
                               </svg>